<?xml version="1.0" encoding="UTF-8" standalone="no"?>
<!-- Created with Inkscape (http://www.inkscape.org/) -->

<svg
   xmlns:dc="http://purl.org/dc/elements/1.1/"
   xmlns:cc="http://creativecommons.org/ns#"
   xmlns:rdf="http://www.w3.org/1999/02/22-rdf-syntax-ns#"
   xmlns:svg="http://www.w3.org/2000/svg"
   xmlns="http://www.w3.org/2000/svg"
   xmlns:sodipodi="http://sodipodi.sourceforge.net/DTD/sodipodi-0.dtd"
   xmlns:inkscape="http://www.inkscape.org/namespaces/inkscape"
   width="1100"
   height="477.55957"
   viewBox="0 0 291.04166 126.35431"
   version="1.1"
   id="svg1067"
   inkscape:version="0.92.4 (5da689c313, 2019-01-14)"
   sodipodi:docname="mdt_text_white.svg">
  <defs
     id="defs1061" />
  <sodipodi:namedview
     id="base"
     pagecolor="#ffffff"
     bordercolor="#666666"
     borderopacity="1.0"
     inkscape:pageopacity="0.0"
     inkscape:pageshadow="2"
     inkscape:zoom="0.35"
     inkscape:cx="60.507919"
     inkscape:cy="24.979453"
     inkscape:document-units="px"
     inkscape:current-layer="layer1"
     showgrid="false"
     units="px"
     fit-margin-top="0"
     fit-margin-left="0"
     fit-margin-right="0"
     fit-margin-bottom="0"
     inkscape:window-width="1360"
     inkscape:window-height="682"
     inkscape:window-x="0"
     inkscape:window-y="43"
     inkscape:window-maximized="1" />
  <metadata
     id="metadata1064">
    <rdf:RDF>
      <cc:Work
         rdf:about="">
        <dc:format>image/svg+xml</dc:format>
        <dc:type
           rdf:resource="http://purl.org/dc/dcmitype/StillImage" />
        <dc:title></dc:title>
      </cc:Work>
    </rdf:RDF>
  </metadata>
  <g
     inkscape:label="Capa 1"
     inkscape:groupmode="layer"
     id="layer1"
     transform="translate(24.702839,-29.088166)">
    <g
       transform="matrix(2.3391305,0,0,2.3391305,-115.43608,-170.59165)"
       id="g920"
       style="fill:#ffffff">
      <path
         inkscape:connector-curvature="0"
         style="font-style:normal;font-variant:normal;font-weight:normal;font-stretch:normal;font-size:58.42358398px;line-height:1.25;font-family:GeosansLight;-inkscape-font-specification:GeosansLight;letter-spacing:0px;word-spacing:0px;opacity:1;fill:#ffffff;fill-opacity:1;stroke:none;stroke-width:5.52033901"
         d="m 327.77734,327.2793 -28.00195,73.52343 c 3.31004,-0.15796 6.59305,-0.29273 9.84961,-0.40234 l 16.38477,-43.08984 10.80859,42.66015 c 3.12914,0.003 6.24385,0.0196 9.3418,0.0527 z m -107.3164,0.2207 -21.74805,85.93945 c 3.25441,-0.65529 6.46045,-1.27 9.64649,-1.86718 l 13.86914,-54.48243 18.66406,49.16211 c 3.08365,-0.42692 6.13007,-0.81963 9.1543,-1.19531 z m 169.88086,4.63867 v 69.08985 c 2.94359,0.11291 5.8884,0.2271 8.83398,0.34375 V 340.9707 h 43.7207 c 18.69556,0 33.78528,7.0652 45.26758,21.19727 9.23625,11.26063 14.48701,24.8137 15.78321,40.64258 2.98771,-0.11772 5.99701,-0.25076 9.03906,-0.40625 -1.4269,-18.02319 -7.55181,-33.5041 -18.41992,-46.41797 -13.24881,-15.89858 -30.47182,-23.84766 -51.66993,-23.84766 z m 114.96484,0 v 9.05274 h 34.88867 v 59.33203 c 2.98446,-0.26106 6.01085,-0.5502 9.05469,-0.85352 v -58.47851 h 34.88867 v -9.05274 z"
         transform="scale(0.26458333)"
         id="path890" />
      <path
         inkscape:connector-curvature="0"
         style="font-style:normal;font-variant:normal;font-weight:normal;font-stretch:normal;font-size:58.42358398px;line-height:1.25;font-family:GeosansLight;-inkscape-font-specification:GeosansLight;letter-spacing:0px;word-spacing:0px;opacity:1;fill:#ffffff;fill-opacity:1;stroke:none;stroke-width:5.52033901"
         d="m 606.17773,394.96094 c -83.77994,14.46168 -144.56093,12.13083 -203.6289,9.78711 -47.64094,-1.89026 -94.17926,-3.77325 -150.91406,3.16797 -28.41343,3.47614 -59.3901,9.16196 -94.3418,18.17382 2.24292,-0.36423 4.47705,-0.71169 6.6875,-1.04882 11.34635,-1.7281 22.26562,-3.08885 32.85156,-4.16016 l -17.44141,68.91797 h 9.05274 l 17.77148,-69.80274 c 13.49869,-1.16857 26.45346,-1.85891 39.05078,-2.2207 l 28.85352,75.99805 28.80078,-75.74024 c 10.58297,0.32146 21.09521,0.73549 31.65039,1.1543 2.38934,0.0948 4.79187,0.1875 7.1875,0.28125 l 17.81641,70.33008 h 9.27344 l -17.6836,-69.97266 c 12.82633,0.47413 25.81112,0.87505 39.17774,1.03711 v 68.93555 h 52.55468 c 21.34531,0 38.6418,-7.94908 51.89063,-23.84766 11.87557,-14.42033 18.03334,-31.97272 18.50391,-52.63867 8.7014,-1.23431 17.67024,-2.66364 26.90429,-4.28516 v 80.77149 H 549.25 v -82.41211 c 17.87533,-3.33325 36.7688,-7.41296 56.92773,-12.42578 z m -266.47461,10.55273 c 21.30927,0.0863 41.90653,0.91128 62.75,1.73828 43.20208,1.71421 87.67304,3.27709 141.20899,-1.60156 -86.39633,15.54421 -148.55194,13.43346 -208.99609,11.03516 -40.95372,-1.62497 -81.52552,-3.07776 -128.3418,0.9375 15.97922,-3.06584 31.15706,-5.4582 45.61133,-7.22657 28.25849,-3.45728 53.97969,-4.71351 78.58789,-4.87304 3.07602,-0.0199 6.1355,-0.0221 9.17968,-0.01 z m 164.50782,9.03321 c -0.71409,19.87283 -7.09057,35.90519 -19.13867,48.09179 -11.92394,12.07113 -25.98278,18.10742 -42.17579,18.10742 h -43.7207 V 420.9375 c 31.75032,0.11448 65.83561,-1.2935 105.03516,-6.39062 z m -239.72266,2.9082 c 9.75501,-0.0412 19.33072,0.0895 28.82227,0.3164 l -19.19141,50.38672 -19.30273,-50.60156 c 3.2429,-0.0522 6.4697,-0.088 9.67187,-0.10156 z"
         transform="scale(0.26458333)"
         id="path892" />
      <g
         aria-label="MAR DE TRABAJO"
         style="font-style:normal;font-weight:normal;font-size:5.9425416px;line-height:1.25;font-family:sans-serif;letter-spacing:0px;word-spacing:0px;fill:#ffffff;fill-opacity:1;stroke:none;stroke-width:0.14856353"
         id="g918">
        <path
           inkscape:connector-curvature="0"
           d="m 47.331477,132.63313 h 0.873391 l 1.105522,2.94806 1.111325,-2.94806 h 0.873391 v 4.33214 h -0.571622 v -3.80404 l -1.117128,2.97127 h -0.589031 l -1.117128,-2.97127 v 3.80404 h -0.56872 z"
           style="letter-spacing:3.64331245px;fill:#ffffff;fill-opacity:1;stroke-width:0.14856353"
           id="path894" />
        <path
           inkscape:connector-curvature="0"
           d="m 57.552789,133.21056 -0.795047,2.15591 h 1.592995 z m -0.330786,-0.57743 h 0.664473 l 1.651029,4.33214 h -0.609343 l -0.394622,-1.11132 h -1.952798 l -0.394622,1.11132 h -0.618047 z"
           style="letter-spacing:3.64331245px;fill:#ffffff;fill-opacity:1;stroke-width:0.14856353"
           id="path896" />
        <path
           inkscape:connector-curvature="0"
           d="m 65.864827,134.93413 q 0.188606,0.0638 0.365605,0.27275 0.179901,0.20892 0.359802,0.57453 l 0.594835,1.18386 h -0.629654 l -0.554212,-1.11132 q -0.21472,-0.43525 -0.417835,-0.57743 -0.200212,-0.14218 -0.548408,-0.14218 h -0.638359 v 1.83093 h -0.58613 v -4.33214 h 1.323144 q 0.742818,0 1.108424,0.31048 0.365605,0.31047 0.365605,0.93723 0,0.40913 -0.191507,0.67898 -0.188606,0.26985 -0.55131,0.37431 z m -1.468226,-1.81932 v 1.53786 h 0.737014 q 0.423639,0 0.638359,-0.19441 0.217623,-0.19731 0.217623,-0.57742 0,-0.38012 -0.217623,-0.57162 -0.21472,-0.19441 -0.638359,-0.19441 z"
           style="letter-spacing:3.64331245px;fill:#ffffff;fill-opacity:1;stroke-width:0.14856353"
           id="path898" />
        <path
           inkscape:connector-curvature="0"
           d="m 77.707012,133.11481 v 3.36879 h 0.707999 q 0.896604,0 1.311537,-0.40623 0.417835,-0.40623 0.417835,-1.28252 0,-0.87049 -0.417835,-1.27382 -0.414933,-0.40622 -1.311537,-0.40622 z m -0.586129,-0.48168 h 1.204177 q 1.259308,0 1.848339,0.5252 0.589032,0.52229 0.589032,1.63652 0,1.12003 -0.591933,1.64523 -0.591933,0.52519 -1.845438,0.52519 h -1.204177 z"
           style="letter-spacing:3.64331245px;fill:#ffffff;fill-opacity:1;stroke-width:0.14856353"
           id="path900" />
        <path
           inkscape:connector-curvature="0"
           d="m 85.337169,132.63313 h 2.73914 v 0.49328 h -2.153011 v 1.28252 h 2.06306 v 0.49328 h -2.06306 v 1.56978 h 2.20524 v 0.49328 h -2.791369 z"
           style="letter-spacing:3.64331245px;fill:#ffffff;fill-opacity:1;stroke-width:0.14856353"
           id="path902" />
        <path
           inkscape:connector-curvature="0"
           d="m 97.675534,132.63313 h 3.664756 v 0.49328 h -1.53786 v 3.83886 h -0.589031 v -3.83886 h -1.537865 z"
           style="letter-spacing:3.64331245px;fill:#ffffff;fill-opacity:1;stroke-width:0.14856353"
           id="path904" />
        <path
           inkscape:connector-curvature="0"
           d="m 107.60668,134.93413 q 0.18861,0.0638 0.36561,0.27275 0.1799,0.20892 0.3598,0.57453 l 0.59483,1.18386 h -0.62965 l -0.55421,-1.11132 q -0.21472,-0.43525 -0.41784,-0.57743 -0.20021,-0.14218 -0.54841,-0.14218 h -0.63836 v 1.83093 h -0.58612 v -4.33214 h 1.32314 q 0.74282,0 1.10842,0.31048 0.36561,0.31047 0.36561,0.93723 0,0.40913 -0.19151,0.67898 -0.18861,0.26985 -0.55131,0.37431 z m -1.46823,-1.81932 v 1.53786 h 0.73702 q 0.42364,0 0.63836,-0.19441 0.21762,-0.19731 0.21762,-0.57742 0,-0.38012 -0.21762,-0.57162 -0.21472,-0.19441 -0.63836,-0.19441 z"
           style="letter-spacing:3.64331245px;fill:#ffffff;fill-opacity:1;stroke-width:0.14856353"
           id="path906" />
        <path
           inkscape:connector-curvature="0"
           d="m 114.53174,133.21056 -0.79505,2.15591 h 1.593 z m -0.33078,-0.57743 h 0.66447 l 1.65103,4.33214 h -0.60935 l -0.39462,-1.11132 h -1.9528 l -0.39462,1.11132 h -0.61804 z"
           style="letter-spacing:3.64331245px;fill:#ffffff;fill-opacity:1;stroke-width:0.14856353"
           id="path908" />
        <path
           inkscape:connector-curvature="0"
           d="m 121.37555,134.89641 v 1.58719 h 0.94013 q 0.47297,0 0.6993,-0.19441 0.22922,-0.19731 0.22922,-0.60064 0,-0.40623 -0.22922,-0.59773 -0.22633,-0.19441 -0.6993,-0.19441 z m 0,-1.7816 v 1.30573 h 0.86759 q 0.42944,0 0.63836,-0.15959 0.21182,-0.16249 0.21182,-0.49328 0,-0.32788 -0.21182,-0.49037 -0.20892,-0.16249 -0.63836,-0.16249 z m -0.58613,-0.48168 h 1.49725 q 0.67027,0 1.03298,0.27856 0.3627,0.27856 0.3627,0.79215 0,0.39752 -0.1857,0.63255 -0.18571,0.23503 -0.54551,0.29307 0.43234,0.0928 0.67028,0.38882 0.24083,0.29306 0.24083,0.73411 0,0.58033 -0.39462,0.8966 -0.39462,0.31628 -1.12293,0.31628 h -1.55528 z"
           style="letter-spacing:3.64331245px;fill:#ffffff;fill-opacity:1;stroke-width:0.14856353"
           id="path910" />
        <path
           inkscape:connector-curvature="0"
           d="m 129.95454,133.21056 -0.79505,2.15591 h 1.593 z m -0.33079,-0.57743 h 0.66448 l 1.65103,4.33214 h -0.60935 l -0.39462,-1.11132 h -1.9528 l -0.39462,1.11132 h -0.61805 z"
           style="letter-spacing:3.64331245px;fill:#ffffff;fill-opacity:1;stroke-width:0.14856353"
           id="path912" />
        <path
           inkscape:connector-curvature="0"
           d="m 136.21222,132.63313 h 0.58613 v 4.03037 q 0,0.78344 -0.29887,1.13744 -0.29596,0.354 -0.95463,0.354 h -0.22343 v -0.49328 h 0.1828 q 0.38882,0 0.54841,-0.21762 0.15959,-0.21762 0.15959,-0.78054 z"
           style="letter-spacing:3.64331245px;fill:#ffffff;fill-opacity:1;stroke-width:0.14856353"
           id="path914" />
        <path
           inkscape:connector-curvature="0"
           d="m 143.36651,133.03066 q -0.63836,0 -1.01557,0.47587 -0.37431,0.47586 -0.37431,1.29703 0,0.81826 0.37431,1.29412 0.37721,0.47587 1.01557,0.47587 0.63836,0 1.00977,-0.47587 0.37431,-0.47586 0.37431,-1.29412 0,-0.82117 -0.37431,-1.29703 -0.37141,-0.47587 -1.00977,-0.47587 z m 0,-0.47587 q 0.91111,0 1.45662,0.61225 0.5455,0.60934 0.5455,1.63652 0,1.02427 -0.5455,1.63652 -0.54551,0.60934 -1.45662,0.60934 -0.91402,0 -1.46242,-0.60934 -0.54551,-0.60935 -0.54551,-1.63652 0,-1.02718 0.54551,-1.63652 0.5484,-0.61225 1.46242,-0.61225 z"
           style="letter-spacing:3.64331245px;fill:#ffffff;fill-opacity:1;stroke-width:0.14856353"
           id="path916" />
      </g>
    </g>
  </g>
</svg>
