<svg width="264.58333" height="264.58334" xmlns="http://www.w3.org/2000/svg">
 <metadata id="metadata5">image/svg+xml</metadata>

 <g stroke="null">
  <title>background</title>
  <rect x="-1" y="-1" width="266.58333" height="266.58334" id="canvas_background" fill="#ffffff" stroke="null"/>
 </g>
 <g stroke="null">
  <title>Layer 1</title>
  <g id="layer1" stroke="null">
   <rect id="rect885" width="234.17848" height="153.697242" x="1479.105174" y="-253.014849" stroke="null"/>
   <g id="g957" transform="matrix(1.3494365,0,0,1.395599921081212,571.7990500000001,237.04789390366705) " stroke="null"/>
   <g id="g2756" stroke="null">
    <g id="g377" transform="matrix(2.2277434,0,0,2.303953178403868,380.51494,191.30697647718034) " stroke="null">
     <path id="path373" d="m-125.234938,-127.410292l-7.40885,19.45307c0.87578,-0.0418 1.74441,-0.0774 2.60604,-0.10645l4.33514,-11.40086l2.85977,11.28717c0.82792,0.00079 1.65202,0.005 2.47169,0.0139l-4.86379,-19.24683zm-28.39413,0.05839l-5.75417,22.73814c0.86106,-0.17337 1.70933,-0.33602 2.5523,-0.49402l3.66954,-14.41515l4.9382,13.00748c0.81588,-0.11295 1.62192,-0.21686 2.42208,-0.31626l-7.82795,-20.52019zm44.94764,1.22731l0,18.28003c0.77883,0.0299 1.55798,0.0601 2.33733,0.0909l0,-16.03412l11.56777,0c4.94653,0 8.93902,1.86934 11.97704,5.60845c2.44376,2.97937 3.83302,6.56529 4.17598,10.75334c0.7905,-0.0311 1.58671,-0.0663 2.39158,-0.10748c-0.37753,-4.76864 -1.99808,-8.86463 -4.8736,-12.28142c-3.50542,-4.2065 -8.06234,-6.3097 -13.671,-6.3097l-13.9051,0zm30.41778,0l0,2.3952l9.23096,0l0,15.69827c0.78964,-0.0691 1.59038,-0.14557 2.39572,-0.22582l0,-15.47244l9.23096,0l0,-2.39521l-20.85764,0z" stroke-width="1.46059" fill="#373e48"/>
     <path id="path375" d="m-51.574838,-109.502862c-22.16677,3.82632 -38.24841,3.20961 -53.87681,2.5895c-12.605,-0.50013 -24.91826,-0.99833 -39.92934,0.8382c-7.51772,0.91973 -15.71364,2.4241 -24.96127,4.80849c0.59344,-0.0964 1.18455,-0.1883 1.7694,-0.2775c3.00205,-0.45723 5.89111,-0.81726 8.69197,-1.10071l-4.6147,18.23454l2.3952,0l4.70204,-18.46864c3.57153,-0.30918 6.99914,-0.49183 10.33218,-0.58756l7.63416,20.10782l7.62021,-20.03961c2.80008,0.0851 5.58144,0.1946 8.37417,0.30541c0.63218,0.0251 1.26785,0.0496 1.90169,0.0744l4.71392,18.60816l2.4536,0l-4.67878,-18.5136c3.39363,0.12545 6.82919,0.23153 10.36577,0.27441l0,18.23919l13.9051,0c5.64761,0 10.22397,-2.10319 13.72939,-6.30969c3.14208,-3.81538 4.77132,-8.45945 4.89583,-13.92731c2.30224,-0.32658 4.67525,-0.70476 7.11842,-1.13379l0,21.37079l2.39572,0l0,-21.80487c4.72952,-0.88192 9.72842,-1.96134 15.06213,-3.28765l0,0.00002zm-70.50474,2.79208c5.63808,0.0228 11.08777,0.2411 16.60261,0.45992c11.43055,0.45355 23.19682,0.86706 37.36154,-0.42375c-22.85903,4.11274 -39.30437,3.55427 -55.29688,2.91972c-10.83567,-0.42994 -21.57029,-0.81433 -33.9571,0.24805c4.22783,-0.81117 8.24364,-1.44415 12.068,-1.91203c7.47672,-0.91474 14.28212,-1.24712 20.79304,-1.28933c0.81387,-0.005 1.62335,-0.006 2.42879,-0.003l0,0.00042zm43.52603,2.39003c-0.18894,5.25802 -1.87605,9.49992 -5.06377,12.72429c-3.15488,3.19382 -6.87461,4.79092 -11.15901,4.79092l-11.56777,0l0,-15.82436c8.4006,0.0303 17.419,-0.34224 27.79055,-1.69085zm-63.42662,0.76946c2.58101,-0.0109 5.11459,0.0237 7.62589,0.0837l-5.07773,13.33148l-5.10718,-13.38833c0.85802,-0.0138 1.71178,-0.0233 2.55902,-0.0269l0,0.00005z" stroke-width="1.46059" fill="#162d50"/>
    </g>
    <path id="circle871" d="m-170.242886,-146.846808a92.19873,95.35279 0 0 0 -92.19874,95.3528a92.19873,95.35279 0 0 0 92.19874,95.35281a92.19873,95.35279 0 0 0 92.19875,-95.35281a92.19873,95.35279 0 0 0 -92.19875,-95.3528zm0,10.03715a82.49361,85.31567 0 0 1 82.49363,85.31565a82.49361,85.31567 0 0 1 -82.49363,85.31565a82.49361,85.31567 0 0 1 -82.4936,-85.31565a82.49361,85.31567 0 0 1 82.4936,-85.31565zm-72.69751,87.09176a72.78848,75.27853 0 0 0 72.72784,73.50242a72.78848,75.27853 0 0 0 72.66717,-72.77318a24.26283,25.09285 0 0 1 -24.1415,22.58749a24.26283,25.09285 0 0 1 -24.14533,-22.83058l-0.22742,0a24.26283,25.09285 0 0 1 -24.15288,22.83058a24.26283,25.09285 0 0 1 -24.17372,-23.07364l-0.18781,0a24.26283,25.09285 0 0 1 -24.16424,23.07364a24.26283,25.09285 0 0 1 -24.20222,-23.31673l0.00011,0z" stroke-miterlimit="4" stroke-linejoin="round" stroke-linecap="round" stroke-width="266.099457" fill="#2c5aa0"/>
    <g transform="matrix(2.338211,0,0,2.4181998093805985,-130.31083999999998,334.0179998718794) " id="g939" stroke="null">
     <path d="m326.160883,88.402617l-28.00195,73.52343c3.31004,-0.15796 6.59305,-0.29273 9.84961,-0.40234l16.38477,-43.08984l10.80859,42.66015c3.12914,0.003 6.24385,0.0196 9.3418,0.0527l-18.38282,-72.7441zm-107.3164,0.2207l-21.74805,85.93945c3.25441,-0.65529 6.46045,-1.27 9.64649,-1.86718l13.86914,-54.48243l18.66406,49.16211c3.08365,-0.42692 6.13007,-0.81963 9.1543,-1.19531l-29.58594,-77.55664zm169.88086,4.63867l0,69.08985c2.94359,0.11291 5.8884,0.2271 8.83398,0.34375l0,-60.60157l43.7207,0c18.69556,0 33.78528,7.0652 45.26758,21.19727c9.23625,11.26063 14.48701,24.8137 15.78321,40.64258c2.98771,-0.11772 5.99701,-0.25076 9.03906,-0.40625c-1.4269,-18.02319 -7.55181,-33.5041 -18.41992,-46.41797c-13.24881,-15.89858 -30.47182,-23.84766 -51.66993,-23.84766l-52.55468,0zm114.96484,0l0,9.05274l34.88867,0l0,59.33203c2.98446,-0.26106 6.01085,-0.5502 9.05469,-0.85352l0,-58.47851l34.88867,0l0,-9.05274l-78.83203,0z" transform="translate(12.830322265625,-140.1350860595703) scale(0.2645833194255829) " id="path864" stroke-width="5.520339" fill="#373e48"/>
     <path d="m604.561273,156.084257c-83.77994,14.46168 -144.56093,12.13083 -203.6289,9.78711c-47.64094,-1.89026 -94.17926,-3.77325 -150.91406,3.16797c-28.41343,3.47614 -59.3901,9.16196 -94.3418,18.17382c2.24292,-0.36423 4.47705,-0.71169 6.6875,-1.04882c11.34635,-1.7281 22.26562,-3.08885 32.85156,-4.16016l-17.44141,68.91797l9.05274,0l17.77148,-69.80274c13.49869,-1.16857 26.45346,-1.85891 39.05078,-2.2207l28.85352,75.99805l28.80078,-75.74024c10.58297,0.32146 21.09521,0.73549 31.65039,1.1543c2.38934,0.0948 4.79187,0.1875 7.1875,0.28125l17.81641,70.33008l9.27344,0l-17.6836,-69.97266c12.82633,0.47413 25.81112,0.87505 39.17774,1.03711l0,68.93555l52.55468,0c21.34531,0 38.6418,-7.94908 51.89063,-23.84766c11.87557,-14.42033 18.03334,-31.97272 18.50391,-52.63867c8.7014,-1.23431 17.67024,-2.66364 26.90429,-4.28516l0,80.77149l9.05469,0l0,-82.41211c17.87533,-3.33325 36.7688,-7.41296 56.92773,-12.42578zm-266.47461,10.55273c21.30927,0.0863 41.90653,0.91128 62.75,1.73828c43.20208,1.71421 87.67304,3.27709 141.20899,-1.60156c-86.39633,15.54421 -148.55194,13.43346 -208.99609,11.03516c-40.95372,-1.62497 -81.52552,-3.07776 -128.3418,0.9375c15.97922,-3.06584 31.15706,-5.4582 45.61133,-7.22657c28.25849,-3.45728 53.97969,-4.71351 78.58789,-4.87304c3.07602,-0.0199 6.1355,-0.0221 9.17968,-0.01l0,0.00023zm164.50782,9.03321c-0.71409,19.87283 -7.09057,35.90519 -19.13867,48.09179c-11.92394,12.07113 -25.98278,18.10742 -42.17579,18.10742l-43.7207,0l0,-59.80859c31.75032,0.11448 65.83561,-1.2935 105.03516,-6.39062zm-239.72266,2.9082c9.75501,-0.0412 19.33072,0.0895 28.82227,0.3164l-19.19141,50.38672l-19.30273,-50.60156c3.2429,-0.0522 6.4697,-0.088 9.67187,-0.10156z" transform="translate(12.830322265625,-140.1350860595703) scale(0.2645833194255829) " id="path856" stroke-width="5.520339" fill="#162d50"/>
     <g id="text895" stroke-width="0.148564" fill="#373e48" font-family="sans-serif" font-size="5.942542px" font-weight="normal" font-style="normal">
      <path d="m59.734111,-70.704738l0.87339,0l1.10552,2.94806l1.11132,-2.94806l0.8734,0l0,4.33214l-0.57163,0l0,-3.80404l-1.11712,2.97127l-0.58904,0l-1.11712,-2.97127l0,3.80404l-0.56872,0l0,-4.33214z" id="path899" stroke-width="0.148564" fill="#373e48" stroke="null"/>
      <path d="m69.955421,-70.127308l-0.79505,2.15591l1.593,0l-0.79795,-2.15591zm-0.33079,-0.57743l0.66448,0l1.65102,4.33214l-0.60934,0l-0.39462,-1.11132l-1.9528,0l-0.39462,1.11132l-0.61805,0l1.65393,-4.33214z" id="path901" stroke-width="0.148564" fill="#373e48" stroke="null"/>
      <path d="m78.267461,-68.403738q0.1886,0.0638 0.3656,0.27275q0.1799,0.20892 0.3598,0.57453l0.59484,1.18386l-0.62965,0l-0.55422,-1.11132q-0.21472,-0.43525 -0.41783,-0.57743q-0.20021,-0.14218 -0.54841,-0.14218l-0.63836,0l0,1.83093l-0.58613,0l0,-4.33214l1.32315,0q0.74281,0 1.10842,0.31048q0.3656,0.31047 0.3656,0.93723q0,0.40913 -0.1915,0.67898q-0.18861,0.26985 -0.55131,0.37431zm-1.46823,-1.81932l0,1.53786l0.73702,0q0.42363,0 0.63835,-0.19441q0.21763,-0.19731 0.21763,-0.57742q0,-0.38012 -0.21763,-0.57162q-0.21472,-0.19441 -0.63835,-0.19441l-0.73702,0z" id="path903" stroke-width="0.148564" fill="#373e48" stroke="null"/>
      <path d="m90.109641,-70.223058l0,3.36879l0.708,0q0.89661,0 1.31154,-0.40623q0.41783,-0.40623 0.41783,-1.28252q0,-0.87049 -0.41783,-1.27382q-0.41493,-0.40622 -1.31154,-0.40622l-0.708,0zm-0.58613,-0.48168l1.20418,0q1.25931,0 1.84834,0.5252q0.58903,0.52229 0.58903,1.63652q0,1.12003 -0.59193,1.64523q-0.59193,0.52519 -1.84544,0.52519l-1.20418,0l0,-4.33214z" id="path905" stroke-width="0.148564" fill="#373e48" stroke="null"/>
      <path d="m97.739801,-70.704738l2.73914,0l0,0.49328l-2.15301,0l0,1.28252l2.06306,0l0,0.49328l-2.06306,0l0,1.56978l2.20524,0l0,0.49328l-2.79137,0l0,-4.33214z" id="path907" stroke-width="0.148564" fill="#373e48" stroke="null"/>
      <path d="m110.078161,-70.704738l3.66476,0l0,0.49328l-1.53786,0l0,3.83886l-0.58903,0l0,-3.83886l-1.53787,0l0,-0.49328z" id="path909" stroke-width="0.148564" fill="#373e48" stroke="null"/>
      <path d="m120.009311,-68.403738q0.18861,0.0638 0.36561,0.27275q0.1799,0.20892 0.3598,0.57453l0.59483,1.18386l-0.62965,0l-0.55421,-1.11132q-0.21472,-0.43525 -0.41784,-0.57743q-0.20021,-0.14218 -0.54841,-0.14218l-0.63836,0l0,1.83093l-0.58612,0l0,-4.33214l1.32314,0q0.74282,0 1.10842,0.31048q0.36561,0.31047 0.36561,0.93723q0,0.40913 -0.19151,0.67898q-0.18861,0.26985 -0.55131,0.37431zm-1.46823,-1.81932l0,1.53786l0.73702,0q0.42364,0 0.63836,-0.19441q0.21762,-0.19731 0.21762,-0.57742q0,-0.38012 -0.21762,-0.57162q-0.21472,-0.19441 -0.63836,-0.19441l-0.73702,0z" id="path911" stroke-width="0.148564" fill="#373e48" stroke="null"/>
      <path d="m126.934371,-70.127308l-0.79505,2.15591l1.593,0l-0.79795,-2.15591zm-0.33078,-0.57743l0.66447,0l1.65103,4.33214l-0.60935,0l-0.39462,-1.11132l-1.9528,0l-0.39462,1.11132l-0.61804,0l1.65393,-4.33214z" id="path913" stroke-width="0.148564" fill="#373e48" stroke="null"/>
      <path d="m133.778181,-68.441458l0,1.58719l0.94013,0q0.47297,0 0.6993,-0.19441q0.22922,-0.19731 0.22922,-0.60064q0,-0.40623 -0.22922,-0.59773q-0.22633,-0.19441 -0.6993,-0.19441l-0.94013,0zm0,-1.7816l0,1.30573l0.86759,0q0.42944,0 0.63836,-0.15959q0.21182,-0.16249 0.21182,-0.49328q0,-0.32788 -0.21182,-0.49037q-0.20892,-0.16249 -0.63836,-0.16249l-0.86759,0zm-0.58613,-0.48168l1.49725,0q0.67027,0 1.03298,0.27856q0.3627,0.27856 0.3627,0.79215q0,0.39752 -0.1857,0.63255q-0.18571,0.23503 -0.54551,0.29307q0.43234,0.0928 0.67028,0.38882q0.24083,0.29306 0.24083,0.73411q0,0.58033 -0.39462,0.8966q-0.39462,0.31628 -1.12293,0.31628l-1.55528,0l0,-4.33214z" id="path915" stroke-width="0.148564" fill="#373e48" stroke="null"/>
      <path d="m142.357171,-70.127308l-0.79505,2.15591l1.593,0l-0.79795,-2.15591zm-0.33079,-0.57743l0.66448,0l1.65103,4.33214l-0.60935,0l-0.39462,-1.11132l-1.9528,0l-0.39462,1.11132l-0.61805,0l1.65393,-4.33214z" id="path917" stroke-width="0.148564" fill="#373e48" stroke="null"/>
      <path d="m148.614851,-70.704738l0.58613,0l0,4.03037q0,0.78344 -0.29887,1.13744q-0.29596,0.354 -0.95463,0.354l-0.22343,0l0,-0.49328l0.1828,0q0.38882,0 0.54841,-0.21762q0.15959,-0.21762 0.15959,-0.78054l0,-4.03037z" id="path919" stroke-width="0.148564" fill="#373e48" stroke="null"/>
      <path d="m155.769141,-70.307208q-0.63836,0 -1.01557,0.47587q-0.37431,0.47586 -0.37431,1.29703q0,0.81826 0.37431,1.29412q0.37721,0.47587 1.01557,0.47587q0.63836,0 1.00977,-0.47587q0.37431,-0.47586 0.37431,-1.29412q0,-0.82117 -0.37431,-1.29703q-0.37141,-0.47587 -1.00977,-0.47587zm0,-0.47587q0.91111,0 1.45662,0.61225q0.5455,0.60934 0.5455,1.63652q0,1.02427 -0.5455,1.63652q-0.54551,0.60934 -1.45662,0.60934q-0.91402,0 -1.46242,-0.60934q-0.54551,-0.60935 -0.54551,-1.63652q0,-1.02718 0.54551,-1.63652q0.5484,-0.61225 1.46242,-0.61225z" id="path921" stroke-width="0.148564" fill="#373e48" stroke="null"/>
     </g>
    </g>
    <g id="g1722" stroke="null">
     <g id="g1687" stroke="null">
      <g id="g1516" stroke="null">
       <path d="m90.647894,-86.516238l13.22916,-27.36346l-26.45833,0l13.22917,27.36346z" id="path1512" stroke-miterlimit="4" stroke-linecap="round" stroke-width="0.4" fill="#1a1a1a"/>
       <rect id="rect1514" width="79.375" height="82.090372" x="50.960391" y="-180.236077" stroke-miterlimit="4" stroke-linecap="round" stroke-width="0.379747" fill="#1a1a1a"/>
      </g>
      <rect id="rect1518" width="71.4375" height="73.881334" x="-831.175686" y="-394.563256" stroke-miterlimit="4" stroke-linecap="round" stroke-width="0.341772" fill="#f04b24"/>
      <rect id="rect1520" width="79.375" height="16.418074" x="-835.144436" y="-303.169298" ry="5.027083" stroke-miterlimit="4" stroke-linecap="round" stroke-width="0.169828" fill="#1a1a1a"/>
      <g id="text1524" stroke-width="0.264583" fill="#ffffff" font-family="sans-serif" font-size="10.583333px" font-weight="normal" font-style="normal">
       <path d="m-775.173936,-297.918408l-2.6355,4.25952l2.6355,0l0,-4.25952zm-0.27389,-0.94061l1.31258,0l0,5.20013l1.10071,0l0,0.89786l-1.10071,0l0,1.88124l-1.03869,0l0,-1.88124l-3.48299,0l0,-1.04216l3.2091,-5.05583zm-8.43359,7.07068l3.64319,0l0,0.90855l-4.89893,0l0,-0.90855q0.59428,-0.63599 1.61748,-1.70488q1.02836,-1.07422 1.29191,-1.38421q0.50126,-0.58254 0.69763,-0.98336q0.20154,-0.40618 0.20154,-0.79632q0,-0.63599 -0.43409,-1.03683q-0.42891,-0.40083 -1.12137,-0.40083q-0.49093,0 -1.0387,0.17636q-0.5426,0.17638 -1.16272,0.53445l0,-1.09026q0.63045,-0.26189 1.17822,-0.39549q0.54777,-0.13361 1.00253,-0.13361q1.19889,0 1.91202,0.61995q0.71314,0.61995 0.71314,1.65678q0,0.49168 -0.18087,0.93527q-0.1757,0.43824 -0.64595,1.03682q-0.1292,0.15498 -0.82166,0.89786q-0.69246,0.73753 -1.95337,2.06829l0,0.00001zm-3.59668,-2.07898q0,-1.08492 -0.43408,-1.69953q-0.42891,-0.61996 -1.18339,-0.61996q-0.75448,0 -1.18856,0.61996q-0.42891,0.61461 -0.42891,1.69953q0,1.08491 0.42891,1.70487q0.43408,0.6146 1.18856,0.6146q0.75448,0 1.18339,-0.6146q0.43408,-0.61996 0.43408,-1.70487zm-3.23494,-2.08968q0.29972,-0.53444 0.75447,-0.79097q0.45992,-0.26188 1.09554,-0.26188q1.0542,0 1.71049,0.8658q0.66146,0.8658 0.66146,2.27673q0,1.41092 -0.66146,2.27671q-0.65629,0.8658 -1.71049,0.8658q-0.63562,0 -1.09554,-0.25653q-0.45475,-0.26187 -0.75447,-0.79631l0,0.89786l-0.95602,0l0,-8.31593l0.95602,0l0,3.23872zm-4.65605,-1.9614l-2.6355,4.25951l2.6355,0l0,-4.25951zm-0.27389,-0.94062l1.31259,0l0,5.20013l1.1007,0l0,0.89786l-1.1007,0l0,1.88124l-1.0387,0l0,-1.88124l-3.48299,0l0,-1.04216l3.2091,-5.05583zm-7.10034,0.71081q-0.80615,0 -1.21439,0.82304q-0.40308,0.8177 -0.40308,2.46379q0,1.64073 0.40308,2.46377q0.40824,0.8177 1.21439,0.8177q0.81132,0 1.2144,-0.8177q0.40824,-0.82304 0.40824,-2.46377q0,-1.64609 -0.40824,-2.46379q-0.40308,-0.82304 -1.2144,-0.82304zm0,-0.85511q1.29708,0 1.97921,1.06354q0.6873,1.0582 0.6873,3.0784q0,2.01484 -0.6873,3.07838q-0.68213,1.0582 -1.97921,1.0582q-1.29707,0 -1.98437,-1.0582q-0.68213,-1.06354 -0.68213,-3.07838q0,-2.0202 0.68213,-3.0784q0.6873,-1.06354 1.98437,-1.06354zm-3.15743,-0.19239l0,0.81769l-0.9095,0q-0.5116,0 -0.71314,0.21377q-0.19637,0.21379 -0.19637,0.7696l0,0.5291l1.5658,0l0,0.76425l-1.5658,0l0,5.22151l-0.95601,0l0,-5.22151l-0.90951,0l0,-0.76425l0.90951,0l0,-0.41687q0,-0.9994 0.44959,-1.45368q0.44958,-0.45961 1.42626,-0.45961l0.89917,0zm-7.38456,3.50059l-1.50378,0l-0.43408,1.78504l1.51412,0l0.42374,-1.78504zm-0.77514,-3.04098l-0.53744,2.21794l1.50895,0l0.54261,-2.21794l0.82682,0l-0.53227,2.21794l1.61231,0l0,0.82304l-1.81385,0l-0.42374,1.78504l1.64331,0l0,0.8177l-1.84485,0l-0.53744,2.21259l-0.82682,0l0.53227,-2.21259l-1.51412,0l-0.53227,2.21259l-0.83199,0l0.53744,-2.21259l-1.62781,0l0,-0.8177l1.81901,0l0.43408,-1.78504l-1.66398,0l0,-0.82304l1.86552,0l0.5271,-2.21794l0.83716,0z" id="path1644" stroke-width="0.264583" fill="#ffffff" stroke="null"/>
      </g>
     </g>
     <g id="g1696" stroke="null">
      <g id="g1532" stroke="null">
       <path id="path1528" d="m90.647894,-86.516238l13.22916,-27.36346l-26.45833,0l13.22917,27.36346z" stroke-miterlimit="4" stroke-linecap="round" stroke-width="0.4" fill="#1a1a1a"/>
       <rect y="-180.236077" x="50.960391" height="82.090372" width="79.375" id="rect1530" stroke-miterlimit="4" stroke-linecap="round" stroke-width="0.379747" fill="#1a1a1a"/>
      </g>
      <rect y="-398.010782" x="-688.109406" height="73.881334" width="71.4375" id="rect1534" stroke-miterlimit="4" stroke-linecap="round" stroke-width="0.341772" fill="#55565a"/>
      <rect ry="5.027083" y="-306.616824" x="-692.078146" height="16.418074" width="79.375" id="rect1536" stroke-miterlimit="4" stroke-linecap="round" stroke-width="0.169828" fill="#1a1a1a"/>
      <g id="text1540" stroke-width="0.264583" fill="#ffffff" font-family="sans-serif" font-size="10.583333px" font-weight="normal" font-style="normal">
       <path d="m-630.836416,-297.336228q-1.15238,0 -1.5968,0.27257q-0.44442,0.27256 -0.44442,0.92993q0,0.52375 0.33073,0.83373q0.3359,0.30462 0.90951,0.30462q0.79065,0 1.26607,-0.57719q0.48059,-0.58254 0.48059,-1.54454l0,-0.21912l-0.94568,0zm1.89653,-0.40617l0,3.41508l-0.95085,0l0,-0.90855q-0.32556,0.54513 -0.81132,0.807q-0.48576,0.25654 -1.18856,0.25654q-0.88883,0 -1.41593,-0.51306q-0.52193,-0.51841 -0.52193,-1.38421q0,-1.0101 0.65112,-1.52316q0.65629,-0.51306 1.95337,-0.51306l1.33325,0l0,-0.09621q0,-0.67874 -0.43408,-1.04751q-0.42891,-0.37411 -1.20923,-0.37411q-0.49609,0 -0.96635,0.12293q-0.47025,0.12292 -0.90434,0.36876l0,-0.90855q0.52194,-0.20843 1.01286,-0.30998q0.49093,-0.10689 0.95602,-0.10689q1.25573,0 1.87585,0.67339q0.62012,0.67341 0.62012,2.04158l0,0.00001zm-11.12077,-4.56415l4.09794,0l0,0.90856l-3.14192,0l0,1.95606q0.22737,-0.08016 0.45475,-0.11758q0.22737,-0.04275 0.45475,-0.04275q1.29191,0 2.04639,0.73218q0.75447,0.73218 0.75447,1.98278q0,1.28801 -0.77514,2.00416q-0.77515,0.71081 -2.18592,0.71081q-0.48576,0 -0.99218,-0.08551q-0.50127,-0.08551 -1.0387,-0.25654l0,-1.08491q0.46509,0.26188 0.96118,0.39014q0.4961,0.12826 1.04903,0.12826q0.89401,0 1.41594,-0.48633q0.52193,-0.48635 0.52193,-1.32008q0,-0.83373 -0.52193,-1.32007q-0.52193,-0.48634 -1.41594,-0.48634q-0.41858,0 -0.83716,0.0962q-0.41341,0.0962 -0.84749,0.29928l0,-4.00831l0,-0.00001zm-4.38733,3.55939q-0.7028,0 -1.11621,0.49703q-0.40824,0.49703 -0.40824,1.36283q0,0.86045 0.40824,1.36283q0.41341,0.49703 1.11621,0.49703q0.7028,0 1.11105,-0.49703q0.41341,-0.50238 0.41341,-1.36283q0,-0.8658 -0.41341,-1.36283q-0.40825,-0.49703 -1.11105,-0.49703zm2.07223,-3.38302l0,0.98338q-0.39274,-0.19241 -0.79582,-0.29395q-0.39791,-0.10154 -0.79065,-0.10154q-1.03353,0 -1.5813,0.72149q-0.5426,0.7215 -0.62011,2.18053q0.30489,-0.46497 0.76481,-0.71081q0.45992,-0.25119 1.01285,-0.25119q1.16272,0 1.83452,0.73219q0.67696,0.72684 0.67696,1.98277q0,1.22922 -0.7028,1.9721q-0.7028,0.74288 -1.87069,0.74288q-1.33842,0 -2.04638,-1.0582q-0.70797,-1.06354 -0.70797,-3.07839q0,-1.89192 0.86816,-3.01426q0.86817,-1.12767 2.33061,-1.12767q0.39274,0 0.79065,0.08017q0.40308,0.08017 0.83716,0.2405zm-11.16211,-0.17636l4.09794,0l0,0.90855l-3.14193,0l0,1.95606q0.22738,-0.08016 0.45475,-0.11758q0.22738,-0.04275 0.45476,-0.04275q1.29191,0 2.04638,0.73218q0.75448,0.73218 0.75448,1.98278q0,1.28801 -0.77515,2.00416q-0.77514,0.71081 -2.18591,0.71081q-0.48576,0 -0.99219,-0.08551q-0.50126,-0.08551 -1.03869,-0.25654l0,-1.08491q0.46508,0.26188 0.96118,0.39014q0.49609,0.12826 1.04903,0.12826q0.894,0 1.41593,-0.48633q0.52194,-0.48635 0.52194,-1.32008q0,-0.83373 -0.52194,-1.32007q-0.52193,-0.48634 -1.41593,-0.48634q-0.41858,0 -0.83716,0.0962q-0.41341,0.0962 -0.84749,0.29928l0,-4.00831zm-6.73861,0l4.09794,0l0,0.90855l-3.14192,0l0,1.95606q0.22737,-0.08016 0.45475,-0.11758q0.22737,-0.04275 0.45475,-0.04275q1.29191,0 2.04639,0.73218q0.75447,0.73218 0.75447,1.98278q0,1.28801 -0.77514,2.00416q-0.77515,0.71081 -2.18592,0.71081q-0.48575,0 -0.99218,-0.08551q-0.50126,-0.08551 -1.0387,-0.25654l0,-1.08491q0.46509,0.26188 0.96118,0.39014q0.4961,0.12826 1.04903,0.12826q0.89401,0 1.41594,-0.48633q0.52193,-0.48635 0.52193,-1.32008q0,-0.83373 -0.52193,-1.32007q-0.52193,-0.48634 -1.41594,-0.48634q-0.41858,0 -0.83715,0.0962q-0.41342,0.0962 -0.8475,0.29928l0,-4.00831zm-6.7386,0l4.09794,0l0,0.90855l-3.14193,0l0,1.95606q0.22738,-0.08016 0.45475,-0.11758q0.22738,-0.04275 0.45475,-0.04275q1.29192,0 2.04639,0.73218q0.75448,0.73218 0.75448,1.98278q0,1.28801 -0.77515,2.00416q-0.77515,0.71081 -2.18591,0.71081q-0.48576,0 -0.99219,-0.08551q-0.50126,-0.08551 -1.0387,-0.25654l0,-1.08491q0.46509,0.26188 0.96119,0.39014q0.49609,0.12826 1.04903,0.12826q0.894,0 1.41593,-0.48633q0.52193,-0.48635 0.52193,-1.32008q0,-0.83373 -0.52193,-1.32007q-0.52193,-0.48634 -1.41593,-0.48634q-0.41858,0 -0.83716,0.0962q-0.41341,0.0962 -0.84749,0.29928l0,-4.00831zm-4.59921,3.16389l-1.50378,0l-0.43408,1.78505l1.51412,0l0.42374,-1.78505zm-0.77514,-3.04098l-0.53744,2.21795l1.50895,0l0.54261,-2.21795l0.82682,0l-0.53227,2.21795l1.61231,0l0,0.82303l-1.81385,0l-0.42374,1.78505l1.64331,0l0,0.81769l-1.84485,0l-0.53744,2.21259l-0.82682,0l0.53227,-2.21259l-1.51412,0l-0.53227,2.21259l-0.83199,0l0.53744,-2.21259l-1.62781,0l0,-0.81769l1.81901,0l0.43408,-1.78505l-1.66398,0l0,-0.82303l1.86552,0l0.5271,-2.21795l0.83716,0z" id="path1621" stroke-width="0.264583" fill="#ffffff" stroke="null"/>
      </g>
     </g>
     <g id="g1678" stroke="null">
      <g id="g1569" stroke="null">
       <path id="path1565" d="m90.647894,-86.516238l13.22916,-27.36346l-26.45833,0l13.22917,27.36346z" stroke-miterlimit="4" stroke-linecap="round" stroke-width="0.4" fill="#1a1a1a"/>
       <rect y="-180.236077" x="50.960391" height="82.090372" width="79.375" id="rect1567" stroke-miterlimit="4" stroke-linecap="round" stroke-width="0.379747" fill="#1a1a1a"/>
      </g>
      <rect y="-243.783916" x="-810.337186" height="73.881334" width="71.4375" id="rect1571" stroke-miterlimit="4" stroke-linecap="round" stroke-width="0.341772" fill="#f7f7f7"/>
      <rect ry="5.027083" y="-152.389958" x="-814.305936" height="16.418074" width="79.375" id="rect1573" stroke-miterlimit="4" stroke-linecap="round" stroke-width="0.169828" fill="#1a1a1a"/>
      <g id="text1591" stroke-width="0.264583" fill="#ffffff" font-family="sans-serif" font-size="10.583333px" font-weight="normal" font-style="normal">
       <path d="m-760.877676,-148.002198l4.96094,0l0,0.45962l-2.80086,7.5196l-1.09037,0l2.63549,-7.07067l-3.7052,0l0,-0.90855zm-0.66145,-0.3367l0,0.8177l-0.90951,0q-0.5116,0 -0.71313,0.21378q-0.19637,0.21377 -0.19637,0.7696l0,0.52909l1.56579,0l0,0.76426l-1.56579,0l0,5.22149l-0.95602,0l0,-5.22149l-0.9095,0l0,-0.76426l0.9095,0l0,-0.41686q0,-0.99941 0.44959,-1.45369q0.44958,-0.45962 1.42627,-0.45962l0.89917,0zm-9.79786,0.3367l4.96094,0l0,0.45962l-2.80086,7.5196l-1.09037,0l2.63549,-7.07067l-3.7052,0l0,-0.90855zm-0.66145,-0.3367l0,0.8177l-0.90951,0q-0.5116,0 -0.71313,0.21378q-0.19637,0.21377 -0.19637,0.7696l0,0.52909l1.56579,0l0,0.76426l-1.56579,0l0,5.22149l-0.95602,0l0,-5.22149l-0.9095,0l0,-0.76426l0.9095,0l0,-0.41686q0,-0.99941 0.44959,-1.45369q0.44958,-0.45962 1.42627,-0.45962l0.89917,0zm-9.79785,0.3367l4.96093,0l0,0.45962l-2.80086,7.5196l-1.09037,0l2.6355,-7.07067l-3.7052,0l0,-0.90855zm-0.66146,-0.3367l0,0.8177l-0.90951,0q-0.51159,0 -0.71313,0.21378q-0.19637,0.21377 -0.19637,0.7696l0,0.52909l1.56579,0l0,0.76426l-1.56579,0l0,5.22149l-0.95602,0l0,-5.22149l-0.9095,0l0,-0.76426l0.9095,0l0,-0.41686q0,-0.99941 0.44959,-1.45369q0.44958,-0.45962 1.42627,-0.45962l0.89917,0zm-7.38456,3.5006l-1.50379,0l-0.43408,1.78504l1.51412,0l0.42375,-1.78504zm-0.77515,-3.04098l-0.53744,2.21794l1.50896,0l0.5426,-2.21794l0.82682,0l-0.53227,2.21794l1.61231,0l0,0.82304l-1.81384,0l-0.42375,1.78504l1.64331,0l0,0.8177l-1.84485,0l-0.53743,2.21258l-0.82683,0l0.53227,-2.21258l-1.51412,0l-0.53227,2.21258l-0.83199,0l0.53744,-2.21258l-1.62781,0l0,-0.8177l1.81901,0l0.43408,-1.78504l-1.66398,0l0,-0.82304l1.86552,0l0.5271,-2.21794l0.83716,0z" id="path1667" stroke-width="0.264583" fill="#ffffff" stroke="null"/>
      </g>
     </g>
    </g>
    <path d="m333.830864,25.172812c0,-10.61668 0.008,-10.68861 1.22489,-10.99172c0.67367,-0.16783 86.84453,-0.23598 191.4908,-0.15149l190.26588,0.15364l0.14787,10.83808l0.14786,10.8381l-191.63867,0l-191.63863,0l0,-10.68661zm0.10889,-26.02216c-0.49979,-0.51692 -0.65132,-14.3723 -0.64496,-58.97616c0.004,-32.06528 0.20621,-58.62297 0.44807,-59.01708c0.33628,-0.54795 2.86433,-0.68043 10.74347,-0.56302l10.30371,0.15355l0.14962,9.14904c0.0986,6.0313 0.34821,9.14904 0.73251,9.14904c0.32065,0 1.23324,-0.47845 2.02802,-1.06322c2.57109,-1.89177 10.05974,-5.55066 13.75575,-6.72097c8.66097,-2.74239 20.43879,-3.0123 29.06327,-0.66603c5.57576,1.51687 14.2485,5.87568 18.7816,9.4394c1.9462,1.53002 5.06131,4.46696 6.9224,6.52652c1.8611,2.05957 3.5451,3.74467 3.74223,3.74467c0.1971,0 2.29768,-2.03824 4.66793,-4.52943c7.83586,-8.23564 17.17245,-13.48388 28.21898,-15.8623c6.74286,-1.45177 16.58804,-1.17564 23.40901,0.65657c16.99208,4.56433 30.99881,17.62893 36.9905,34.50244c3.09295,8.71016 3.02246,7.72216 3.02246,42.37907l0,32.09202l-10.34349,0l-10.3435,0l-0.27219,-30.96602l-0.27219,-30.96598l-1.46731,-4.15554c-3.54281,-10.03359 -11.12655,-17.72018 -20.67454,-20.95487c-3.32006,-1.12479 -5.03907,-1.34446 -10.24963,-1.30978c-5.32503,0.03547 -6.80895,0.2561 -9.93061,1.4767c-10.4688,4.09341 -17.80458,12.15109 -20.93797,22.99846c-0.7528,2.60604 -0.93523,7.67478 -1.20502,33.47405l-0.31788,30.40298l-9.2547,0.16055c-5.0901,0.08832 -9.80592,0.02017 -10.47959,-0.15149l-1.22489,-0.31203l0,-29.71094c0,-32.98865 0.007,-32.91522 -3.6313,-40.61879c-1.4088,-2.98329 -3.10069,-5.35378 -5.85206,-8.1993c-15.3039,-15.82744 -41.02781,-11.84117 -51.04028,7.90935c-3.69975,7.29817 -3.71494,7.46272 -3.71494,40.34758c0,22.19792 -0.16179,29.67266 -0.65327,30.18095c-0.91898,0.95047 -19.55019,0.95047 -20.46921,0l0,0.00001zm252.42147,0.12301c-17.4231,-2.25515 -32.78084,-13.27463 -41.01894,-29.43192c-13.72859,-26.92558 -3.65765,-60.22062 22.57826,-74.64482c16.67038,-9.1652 38.92206,-8.06015 54.16724,2.69004c0.89826,0.6334 1.93941,1.15332 2.31369,1.15535c0.53089,0.0031 0.68051,-4.12983 0.68051,-18.79715c0,-14.55816 0.15356,-18.84622 0.68047,-19.00186c0.37428,-0.11055 5.15232,-0.12165 10.61785,-0.02472l9.93737,0.17631l-0.13825,69.07491l-0.13826,69.07488l-10.34349,0l-10.3435,0l-0.14685,-4.50413c-0.20308,-6.22956 -0.22434,-6.26161 -2.97917,-4.49069c-4.57561,2.94148 -11.43746,5.99901 -16.36016,7.28994c-5.70598,1.49633 -14.20015,2.12069 -19.50677,1.43382l0,0.00004zm16.6968,-23.60794c20.23107,-7.04179 28.30034,-31.86311 16.30453,-50.15306c-5.94906,-9.07054 -15.98469,-14.61093 -26.50916,-14.63493c-5.05312,-0.01158 -8.65686,0.87106 -13.96658,3.42055c-6.1962,2.97512 -12.07669,8.97121 -15.01697,15.31221c-6.06792,13.08595 -3.64661,27.92259 6.22268,38.12952c8.75186,9.05126 21.16064,12.03464 32.9655,7.92572l0,-0.00001zm-14.80614,-0.08128c-6.5654,-1.18422 -13.56355,-5.15705 -17.6182,-10.0019c-2.48464,-2.96881 -5.8023,-9.51654 -6.32684,-12.48675l-0.34806,-1.97056l1.57258,1.51842c3.1658,3.05684 7.67866,4.05481 11.28634,2.49586c0.98178,-0.42424 2.76852,-1.96124 3.97048,-3.41555l2.18541,-2.64419l1.27079,1.91803c4.11716,6.21412 12.92123,6.42873 16.77642,0.40894c0.69412,-1.08382 1.43103,-2.02351 1.63757,-2.08823c0.20659,-0.06475 1.05842,0.90198 1.89291,2.1482c2.4264,3.62345 7.6541,5.41232 11.45224,3.91887c0.7348,-0.28893 2.26226,-1.36569 3.39434,-2.39283l2.0584,-1.86752l-0.35042,2.23825c-0.91805,5.864 -6.49527,13.77486 -12.58865,17.8561c-5.56394,3.72668 -13.87686,5.51713 -20.26531,4.36486zm118.21705,22.27916c-20.34057,-4.65242 -35.74891,-20.17881 -41.28024,-41.59665c-1.16699,-4.51867 -1.1825,-5.16957 -1.1825,-49.62018l0,-45.04145l10.47959,-0.1529l10.47959,-0.15292l0,8.90784c0,6.17763 0.20024,9.11492 0.65327,9.58347c0.47776,0.49408 4.85033,0.67562 16.27358,0.67562c13.7415,0 15.66006,0.10712 15.95077,0.89058c0.18175,0.48981 0.33043,5.14591 0.33043,10.34689c0,7.19456 -0.17364,9.60537 -0.726,10.07949c-0.48448,0.41582 -5.96376,0.67293 -16.46795,0.77271l-15.74191,0.14954l0,23.08375c0,20.81374 0.0985,23.41592 1.00153,26.46185c3.97842,13.41921 14.62819,22.9337 27.307,24.39603l3.26634,0.37677l0.14787,10.83809l0.14786,10.8381l-3.68644,-0.04478c-2.02753,-0.02441 -5.15627,-0.38094 -6.95279,-0.79186l0,0.00001z" id="path1873" stroke-width="0.544395" fill="#5d5d5d" stroke="null"/>
    <g id="g2703" stroke="null">
     <rect id="rect1886" width="339.92026" height="112.196373" x="1016.043674" y="-391.997217" stroke-miterlimit="4" stroke-linejoin="round" stroke-linecap="round" stroke-width="2.299893" fill="#21243d"/>
     <rect y="-279.800839" x="1016.043674" height="112.196373" width="339.92026" id="rect2693" stroke-miterlimit="4" stroke-linejoin="round" stroke-linecap="round" stroke-width="2.299893" fill="#ff7c7c"/>
     <rect id="rect2695" width="339.92026" height="112.196373" x="1016.043674" y="-167.60446" stroke-miterlimit="4" stroke-linejoin="round" stroke-linecap="round" stroke-width="2.299893" fill="#ffd082"/>
     <rect y="-55.408088" x="1016.043674" height="112.196373" width="339.92026" id="rect2697" stroke-miterlimit="4" stroke-linejoin="round" stroke-linecap="round" stroke-width="2.299893" fill="#88e1f2"/>
    </g>
   </g>
  </g>
 </g>
</svg>